<svg width="14" height="14" viewBox="0 0 14 14" fill="none" xmlns="http://www.w3.org/2000/svg">
<path d="M11.4722 2.72229H4.08333C3.92862 2.72229 3.78025 2.78375 3.67085 2.89314C3.56146 3.00254 3.5 3.15091 3.5 3.30562V12.639C3.5 12.7937 3.56146 12.942 3.67085 13.0514C3.78025 13.1608 3.92862 13.2223 4.08333 13.2223H11.4722C11.6269 13.2223 11.7753 13.1608 11.8847 13.0514C11.9941 12.942 12.0556 12.7937 12.0556 12.639V3.30562C12.0556 3.15091 11.9941 3.00254 11.8847 2.89314C11.7753 2.78375 11.6269 2.72229 11.4722 2.72229V2.72229ZM11.2778 12.4445H4.27778V3.50007H11.2778V12.4445Z" fill="black"/>
<path d="M10.1112 1.36104C10.1112 1.20633 10.0498 1.05796 9.94036 0.948564C9.83097 0.839168 9.6826 0.77771 9.52789 0.77771H2.139C1.98429 0.77771 1.83591 0.839168 1.72652 0.948564C1.61712 1.05796 1.55566 1.20633 1.55566 1.36104V10.6944C1.55566 10.8491 1.61712 10.9975 1.72652 11.1069C1.83591 11.2163 1.98429 11.2777 2.139 11.2777H2.33344V1.55549H10.1112V1.36104Z" fill="black"/>
</svg>
